HIERARCHY
ROOT Hips
{
    OFFSET 0.000000 0.000000 0.000000
    CHANNELS 6 Xposition Yposition Zposition Zrotation Xrotation Yrotation
    JOINT Spine
    {
        OFFSET -0.000000 8.603107 0.000000
        CHANNELS 3 Zrotation Xrotation Yrotation
        JOINT Spine1
        {
            OFFSET -0.000000 23.906662 0.000000
            CHANNELS 3 Zrotation Xrotation Yrotation
            JOINT Neck
            {
                OFFSET -0.000000 23.808481 2.164407
                CHANNELS 3 Zrotation Xrotation Yrotation
                JOINT Head
                {
                    OFFSET -0.000000 14.688231 -2.098319
                    CHANNELS 3 Zrotation Xrotation Yrotation
                    End Site
                    {
                        OFFSET -0.000000 26.228985 0.000000
                    }
                }
            }
            JOINT LeftShoulder
            {
                OFFSET 4.178941 22.658146 -0.129871
                CHANNELS 3 Zrotation Xrotation Yrotation
                JOINT LeftArm
                {
                    OFFSET 9.497952 0.000000 0.000000
                    CHANNELS 3 Zrotation Xrotation Yrotation
                    JOINT LeftForeArm
                    {
                        OFFSET 38.855015 0.000000 0.000000
                        CHANNELS 3 Zrotation Xrotation Yrotation
                        JOINT LeftHand
                        {
                            OFFSET 24.940550 0.000000 0.000000
                            CHANNELS 3 Zrotation Xrotation Yrotation
                            End Site
                            {
                                OFFSET 15.737392 0.000000 0.000000
                            }
                        }
                    }
                }
            }
            JOINT RightShoulder
            {
                OFFSET -4.145384 22.658146 -0.129871
                CHANNELS 3 Zrotation Xrotation Yrotation
                JOINT RightArm
                {
                    OFFSET -9.497952 0.000000 0.000000
                    CHANNELS 3 Zrotation Xrotation Yrotation
                    JOINT RightForeArm
                    {
                        OFFSET -38.855015 0.000000 0.000000
                        CHANNELS 3 Zrotation Xrotation Yrotation
                        JOINT RightHand
                        {
                            OFFSET -24.940550 0.000000 0.000000
                            CHANNELS 3 Zrotation Xrotation Yrotation
                            End Site
                            {
                                OFFSET -15.737392 0.000000 0.000000
                            }
                        }
                    }
                }
            }
        }
    }
    JOINT LeftUpLeg
    {
        OFFSET 10.491594 0.000000 0.000000
        CHANNELS 3 Zrotation Xrotation Yrotation
        JOINT LeftLeg
        {
            OFFSET -0.000000 -46.080647 0.000000
            CHANNELS 3 Zrotation Xrotation Yrotation
            JOINT LeftFoot
            {
                OFFSET -0.000000 -50.184704 0.000000
                CHANNELS 3 Zrotation Xrotation Yrotation
                JOINT LeftToeBase
                {
                    OFFSET -0.000000 -6.819536 15.737392
                    CHANNELS 3 Zrotation Xrotation Yrotation
                    End Site
                    {
                        OFFSET -0.000000 0.000000 4.196638
                    }
                }
            }
        }
    }
    JOINT RightUpLeg
    {
        OFFSET -10.491594 0.000000 0.000000
        CHANNELS 3 Zrotation Xrotation Yrotation
        JOINT RightLeg
        {
            OFFSET -0.000000 -46.080647 0.000000
            CHANNELS 3 Zrotation Xrotation Yrotation
            JOINT RightFoot
            {
                OFFSET -0.000000 -50.184704 0.000000
                CHANNELS 3 Zrotation Xrotation Yrotation
                JOINT RightToeBase
                {
                    OFFSET -0.000000 -6.819536 15.737392
                    CHANNELS 3 Zrotation Xrotation Yrotation
                    End Site
                    {
                        OFFSET -0.000000 0.000000 4.196638
                    }
                }
            }
        }
    }
}
MOTION
Frames:    14
Frame Time:    0.008333
-10.832501    103.189293    40.856064    1.599692    0.076599    92.333191    0.907007    -4.762237    -0.803285    -1.600997    -3.412675    -0.888753    5.399537    17.954279    1.820376    -0.132765    0.449519    1.963274    14.627816    -2.482499    -9.979224    -14.212696    0.790592    7.593272    2.165740    -1.305483    -2.496228    -0.447574    -1.261962    0.932559    -13.820011    0.932266    -6.205757    12.972872    -3.714300    4.101211    -1.953997    -1.793310    0.006087    -0.310062    -1.791436    -0.665062    -0.156051    0.892349    0.104368    -3.113437    9.801829    -0.159117    1.255776    -9.861403    14.923299    0.000000    0.000000    0.000000    -0.479187    5.433088    -1.739136    2.500999    -0.360115    -0.425578    -1.900824    -3.749060    -10.699242    0.000000    0.000000    0.000000    
-10.837144    103.189133    40.862450    1.622380    0.073489    92.327942    0.883764    -4.801675    -0.776867    -1.580670    -3.297983    -0.859463    5.414933    17.783171    1.810607    -0.140188    0.610765    1.943680    14.697452    -2.554679    -10.020581    -14.246728    0.879463    7.570827    2.050244    -0.696407    -2.439282    -1.227940    -0.662479    0.906224    -13.852204    0.943493    -6.219638    12.998321    -3.790128    4.112441    -1.899543    -1.753948    -0.067998    -0.275623    -1.753510    -0.673479    -0.151307    0.903878    0.098824    -3.111556    9.820398    -0.166788    1.186140    -9.906315    14.947553    0.000000    0.000000    0.000000    -0.474789    5.450742    -1.730956    2.505032    -0.355422    -0.435823    -1.880713    -3.753480    -10.697543    0.000000    0.000000    0.000000    
-10.845115    103.188026    40.866959    1.626960    0.078423    92.317169    0.873167    -4.824032    -0.757981    -1.585649    -3.262417    -0.839953    5.432348    17.721172    1.803338    -0.170517    0.689324    1.929127    14.741034    -2.594543    -10.072300    -14.243899    0.869811    7.579967    1.924374    -0.202003    -2.421986    -1.670950    -0.178110    1.142290    -13.859166    0.964199    -6.162059    13.005656    -3.759164    4.071766    -1.884819    -1.776440    -0.130992    -0.098992    -1.778068    -0.672145    -0.158170    0.899129    0.097823    -3.105652    9.830737    -0.145626    1.102211    -9.961773    14.936648    0.000000    0.000000    0.000000    -0.482519    5.445204    -1.718978    2.509269    -0.347426    -0.433870    -1.875935    -3.768915    -10.694437    0.000000    0.000000    0.000000    
-10.850911    103.189255    40.872849    1.631872    0.077991    92.312271    0.853728    -4.844427    -0.736044    -1.574607    -3.244374    -0.816811    5.461353    17.667229    1.793471    -0.207834    0.807152    1.911536    14.772673    -2.613140    -10.148260    -14.226803    0.764667    7.583482    1.771133    0.034607    -2.375145    -1.859933    0.053119    1.112693    -13.856705    0.994254    -6.097215    13.000455    -3.706998    4.010019    -1.871475    -1.787046    -0.174564    -0.051622    -1.789638    -0.664305    -0.155013    0.896770    0.079426    -3.106627    9.842455    -0.158690    0.999832    -10.027352    14.974424    0.000000    0.000000    0.000000    -0.483398    5.444268    -1.733034    2.515515    -0.341579    -0.428933    -1.866629    -3.772993    -10.682311    0.000000    0.000000    0.000000    
-10.856621    103.191711    40.878010    1.642177    0.076073    92.313232    0.831864    -4.860582    -0.728379    -1.537613    -3.222978    -0.806986    5.467880    17.636839    1.798265    -0.286133    0.892154    1.904628    14.767210    -2.659997    -10.196614    -14.202935    0.633316    7.591028    1.724204    0.112696    -2.326249    -2.254607    0.125197    1.136179    -13.882692    1.037609    -6.038311    13.010028    -3.698669    3.989222    -1.846223    -1.867054    -0.162496    -0.305999    -1.867607    -0.784050    -0.155094    0.896975    0.074430    -3.098629    9.858587    -0.163766    0.877151    -10.105258    14.985354    0.000000    0.000000    0.000000    -0.488564    5.454143    -1.730986    2.530131    -0.341054    -0.408290    -1.836071    -3.775558    -10.702267    0.000000    0.000000    0.000000    
-10.864697    103.194786    40.885693    1.637418    0.072292    92.299568    0.834667    -4.896188    -0.717745    -1.551956    -3.198736    -0.796860    5.525567    17.613565    1.812192    -0.393505    0.979859    1.904437    14.799746    -2.700562    -10.239287    -14.192904    0.479852    7.594070    1.683807    0.046331    -2.231616    -2.323308    0.056364    1.123647    -13.889089    1.026355    -5.963209    13.026364    -3.655672    3.963993    -1.835391    -1.904782    -0.197907    -0.398894    -1.905209    -0.806366    -0.148844    0.888471    0.057495    -3.101965    9.853094    -0.108155    0.769969    -10.170695    14.966933    0.000000    0.000000    0.000000    -0.485176    5.440394    -1.752621    2.532073    -0.332918    -0.376440    -1.823409    -3.773610    -10.697167    0.000000    0.000000    0.000000    
-10.873644    103.199158    40.893600    1.634886    0.067221    92.299767    0.842872    -4.908218    -0.724866    -1.572313    -3.220068    -0.805290    5.556692    17.585930    1.853314    -0.434424    1.106326    1.941157    14.818737    -2.706219    -10.264234    -14.185647    0.338522    7.595363    1.690524    -0.110219    -2.148951    -2.253657    -0.102185    1.203322    -13.868063    1.038386    -5.880128    12.998707    -3.364969    3.935742    -1.822901    -2.134559    -0.127520    -0.562888    -2.131902    -0.956140    -0.143195    0.874345    0.056578    -3.089985    9.870463    -0.132224    0.643852    -10.242631    14.979440    0.000000    0.000000    0.000000    -0.483740    5.429478    -1.759417    2.550638    -0.327682    -0.365155    -1.791537    -3.769850    -10.715928    0.000000    0.000000    0.000000    
-10.884076    103.199875    40.900154    1.634406    0.069224    92.293022    0.823396    -4.935292    -0.718206    -1.564199    -3.184918    -0.797254    5.682423    17.557190    1.886250    -0.642251    1.170074    1.948121    14.856282    -2.748474    -10.269790    -14.207316    0.208316    7.560483    1.704784    -0.349961    -2.051072    -1.871945    -0.337622    1.107319    -13.868208    0.971123    -5.877527    13.014289    -3.596114    3.998120    -1.838295    -2.051021    -0.168308    -0.623588    -2.048129    -1.034828    -0.140630    0.863164    0.044899    -3.096505    9.882444    -0.105338    0.582707    -10.293378    14.975424    0.000000    0.000000    0.000000    -0.490473    5.421684    -1.762683    2.558815    -0.323744    -0.318618    -1.801149    -3.764563    -10.740754    0.000000    0.000000    0.000000    
-10.895101    103.202286    40.909035    1.635607    0.069698    92.289940    0.803797    -4.943553    -0.722554    -1.553638    -3.186907    -0.800511    5.776670    17.555126    1.930225    -0.788087    1.192955    1.975786    14.872260    -2.758088    -10.289010    -14.208732    0.041447    7.559843    1.680788    -0.643910    -2.002140    -1.005993    -0.624519    1.133330    -13.849604    0.940224    -5.861384    12.993507    -3.577096    4.045506    -1.835935    -2.055130    -0.172085    -0.716656    -2.051733    -0.990705    -0.135550    0.849915    0.024452    -3.100380    9.893535    -0.088722    0.492009    -10.335319    14.980404    0.000000    0.000000    0.000000    -0.488161    5.409241    -1.770344    2.560128    -0.311515    -0.325531    -1.816481    -3.763118    -10.729045    0.000000    0.000000    0.000000    
-10.910813    103.203598    40.917648    1.626172    0.072525    92.296516    0.762036    -4.974307    -0.727761    -1.514193    -3.142512    -0.802480    5.901190    17.486179    1.980968    -0.969918    1.241157    2.002566    14.894464    -2.820499    -10.288274    -14.225602    -0.128764    7.555569    1.705921    -0.800127    -1.988614    -0.254386    -0.773196    1.171514    -13.847251    0.872003    -5.890886    12.972866    -3.575349    4.111991    -1.847169    -2.052081    -0.131320    -0.819528    -2.047025    -1.006340    -0.134118    0.820589    0.010867    -3.097378    9.911628    -0.088020    0.459006    -10.354798    14.976042    0.000000    0.000000    0.000000    -0.485640    5.388613    -1.799241    2.560611    -0.304014    -0.281732    -1.804394    -3.759447    -10.755321    0.000000    0.000000    0.000000    
-10.924394    103.202248    40.927635    1.630961    0.073941    92.298286    0.695816    -4.980701    -0.726277    -1.429198    -3.100629    -0.795218    6.052699    17.390882    2.040704    -1.190074    1.267351    2.032198    14.916223    -2.871362    -10.290718    -14.253662    -0.345725    7.559132    1.741931    -0.935049    -2.025712    0.357869    -0.900557    1.211972    -13.854799    0.782634    -5.977045    12.933311    -3.531903    4.210048    -1.807549    -2.128916    -0.049921    -1.238699    -2.117670    -1.114218    -0.131222    0.809550    -0.002581    -3.096065    9.926851    -0.090411    0.425985    -10.372265    14.989343    0.000000    0.000000    0.000000    -0.477850    5.379528    -1.807084    2.555855    -0.295572    -0.293010    -1.820900    -3.760469    -10.736083    0.000000    0.000000    0.000000    
-10.936726    103.200058    40.942841    1.630822    0.079261    92.282654    0.617288    -4.973595    -0.724150    -1.329651    -3.108904    -0.787025    6.198914    17.356649    2.121785    -1.418717    1.268522    2.085995    14.920516    -2.792598    -10.242061    -14.254884    -0.672889    7.498369    1.771284    -1.107377    -2.087460    1.121489    -1.062530    1.289400    -13.849264    0.712496    -6.027396    12.884156    -3.537290    4.296755    -1.862560    -2.114879    0.019054    -1.042985    -2.104742    -1.082024    -0.125595    0.800893    0.027908    -3.099818    9.933485    -0.110258    0.420480    -10.386067    14.996964    0.000000    0.000000    0.000000    -0.470282    5.368296    -1.785415    2.545098    -0.291420    -0.286851    -1.828335    -3.764764    -10.751277    0.000000    0.000000    0.000000    
-10.952668    103.196846    40.954124    1.635688    0.078959    92.296432    0.540718    -4.975037    -0.742626    -1.215641    -3.066124    -0.798739    6.268684    17.241859    2.153005    -1.521709    1.286701    2.099015    14.925530    -2.829979    -10.220200    -14.264068    -0.993285    7.539189    1.775343    -1.339653    -2.205636    1.838099    -1.283017    1.402216    -13.865552    0.593153    -6.088040    12.833732    -3.499279    4.387560    -1.911156    -2.064501    0.050006    -0.998084    -2.054496    -1.055027    -0.121240    0.790348    0.018981    -3.097481    9.943245    -0.096895    0.421935    -10.393926    14.981275    0.000000    0.000000    0.000000    -0.461330    5.365641    -1.805809    2.531814    -0.228045    -0.228040    -1.832452    -3.835740    -10.771846    0.000000    0.000000    0.000000    
-10.965157    103.196312    40.963207    1.651147    0.084150    92.311272    0.434527    -4.954872    -0.754815    -1.052473    -3.042737    -0.801606    6.088520    17.031227    2.198971    -1.189261    1.420162    2.178164    14.894103    -2.835534    -10.199206    -14.270142    -1.277776    7.548393    1.754483    -1.623389    -2.313423    2.593275    -1.554688    1.471711    -13.904931    0.498464    -6.183315    12.793186    -3.509683    4.497043    -1.965937    -2.049332    0.136297    -0.974790    -2.038199    -1.036188    -0.125546    0.806029    -0.074637    -3.104098    9.921891    0.011391    0.440832    -10.377494    14.960526    0.000000    0.000000    0.000000    -0.458524    5.377951    -1.804016    2.540422    -0.290824    -0.264612    -1.867319    -3.765975    -10.771078    0.000000    0.000000    0.000000    
